<?xml version="1.0" encoding="UTF-8" standalone="no" ?>
<!DOCTYPE svg PUBLIC "-//W3C//DTD SVG 1.1//EN" "http://www.w3.org/Graphics/SVG/1.1/DTD/svg11.dtd">
<svg xmlns="http://www.w3.org/2000/svg" xmlns:xlink="http://www.w3.org/1999/xlink" version="1.1" width="1000" height="300" viewBox="0 0 1000 300" xml:space="preserve">
<desc>Created with Fabric.js 3.6.6</desc>
<defs>
</defs>
<g transform="matrix(0.2 0 0 0.2 500.01 149.99)" id="Selection #1"  >
<path style="stroke: rgb(255,255,255); stroke-width: 1; stroke-dasharray: none; stroke-linecap: butt; stroke-dashoffset: 0; stroke-linejoin: miter; stroke-miterlimit: 4; fill: rgb(255,255,255); fill-rule: nonzero; opacity: 1;"  transform=" translate(-2485.5, -748.01)" d="M 4 4 C 4 4 1526 4 1526 4 C 1526 4 1525 6 1525 6 C 1525 6 1541 6 1541 6 C 1541 6 1540 8 1540 8 C 1540 8 1552 8 1552 8 C 1552 8 1551 10 1551 10 C 1556.7 10 1571.26 11.74 1575 16 C 1585.84 14.89 1596.37 22.39 1605 23 C 1605 23 1604 25 1604 25 C 1609.66 25.37 1622.9 30.19 1626 35 C 1626 35 1634 36 1634 36 C 1634 36 1666.54 55.45 1666.54 55.45 C 1666.54 55.45 1692.25 74.32 1692.25 74.32 C 1692.25 74.32 1699.28 79.12 1699.28 79.12 C 1699.28 79.12 1708.3 87.11 1708.3 87.11 C 1708.3 87.11 1727.33 106 1727.33 106 C 1727.33 106 1737 114 1737 114 C 1737 114 1748.73 128.79 1748.73 128.79 C 1748.73 128.79 1754.24 134.33 1754.24 134.33 C 1754.24 134.33 1757.68 139.72 1757.68 139.72 C 1757.68 139.72 1766.63 150.51 1766.63 150.51 C 1766.63 150.51 1779 167 1779 167 C 1779 167 1778 169 1778 169 C 1782.17 171.53 1787.37 180.11 1788 185 C 1788 185 1790 184 1790 184 C 1790 184 1790 188 1790 188 C 1793.35 188.97 1793.19 190.85 1793 194 C 1798.88 197.58 1806.54 215.64 1810.03 222.6 C 1810.03 222.6 1830.02 269.17 1830.02 269.17 C 1830.02 269.17 1834.74 285.05 1834.74 285.05 C 1837.9 295.17 1842.97 305.26 1843 316 C 1843 316 1845 315 1845 315 C 1845 315 1845 596 1845 596 C 1845 596 1264 596 1264 596 C 1255.35 595.99 1254.73 594.49 1246.91 592.14 C 1246.91 592.14 1222.13 584.89 1222.13 584.89 C 1216.58 583.13 1212.96 581.19 1207 581 C 1207 581 1208 579 1208 579 C 1208 579 1201 579 1201 579 C 1201 579 1202 577 1202 577 C 1202 577 1159 566 1159 566 C 1159 566 1160 564 1160 564 C 1160 564 1153 564 1153 564 C 1153 564 1154 562 1154 562 C 1154 562 1147 562 1147 562 C 1147 562 1148 560 1148 560 C 1148 560 1127.83 554.43 1127.83 554.43 C 1127.83 554.43 1113.28 550.63 1113.28 550.63 C 1113.28 550.63 1085.83 541.41 1085.83 541.41 C 1085.83 541.41 1066.27 535.37 1066.27 535.37 C 1066.27 535.37 1064 533 1064 533 C 1057.2 534.19 1045.52 529.05 1038.73 526.71 C 1038.73 526.71 1015.59 518.91 1015.59 518.91 C 1015.59 518.91 1005 516.31 1005 516.31 C 999.28 514.69 991.57 511.39 986 511 C 986 511 987 509 987 509 C 987 509 980 509 980 509 C 980 509 981 507 981 507 C 981 507 974 507 974 507 C 974 507 975 505 975 505 C 975 505 932 494 932 494 C 932 494 933 492 933 492 C 923.83 491.9 915.42 487.2 906.83 484.41 C 906.83 484.41 893 480.64 893 480.64 C 887.61 479.09 883.67 477.18 878 477 C 878 477 879 475 879 475 C 879 475 860 471 860 471 C 860 471 861 469 861 469 C 861 469 812 456 812 456 C 812 456 813 454 813 454 C 813 454 806 454 806 454 C 806 454 807 452 807 452 C 807 452 786.83 446.43 786.83 446.43 C 786.83 446.43 772.28 442.63 772.28 442.63 C 772.28 442.63 744.83 433.41 744.83 433.41 C 744.83 433.41 725.27 427.37 725.27 427.37 C 725.27 427.37 723 425 723 425 C 723 425 711 424 711 424 C 711 424 712 422 712 422 C 704.19 421.92 692.41 417.13 684.83 414.34 C 681.55 413.13 677.34 412.67 675 410 C 675 410 645 403 645 403 C 645 403 646 401 646 401 C 646 401 591 386 591 386 C 591 386 592 384 592 384 C 581.11 383.88 550 369.41 537 369 C 537 369 538 367 538 367 C 538 367 518.73 361.71 518.73 361.71 C 518.73 361.71 491.28 353.63 491.28 353.63 C 491.28 353.63 471 348 471 348 C 471 348 472 346 472 346 C 472 346 465 346 465 346 C 465 346 466 344 466 344 C 466 344 443.96 337.96 443.96 337.96 C 443.96 337.96 397.83 323.41 397.83 323.41 C 397.83 323.41 367.87 314.42 367.87 314.42 C 367.87 314.42 343.87 306.42 343.87 306.42 C 343.87 306.42 334 302 334 302 C 334 302 304 295 304 295 C 304 295 305 293 305 293 C 305 293 298 293 298 293 C 298 293 299 291 299 291 C 299 291 292 291 292 291 C 292 291 293 289 293 289 C 293 289 250 278 250 278 C 250 278 251 276 251 276 C 240.11 275.88 209 261.41 196 261 C 196 261 197 259 197 259 C 197 259 177.73 253.71 177.73 253.71 C 177.73 253.71 150.28 245.63 150.28 245.63 C 150.28 245.63 130 240 130 240 C 130 240 131 238 131 238 C 131 238 124 238 124 238 C 124 238 125 236 125 236 C 117 235.91 112.38 232.64 104.83 230.43 C 104.83 230.43 90.28 226.63 90.28 226.63 C 90.28 226.63 53 214.31 53 214.31 C 47.27 212.57 34.25 208.17 29 208 C 29 208 30 206 30 206 C 30 206 4 200 4 200 C 4 200 4 4 4 4 Z M 614 423.12 C 614 423.12 619.83 423.12 619.83 423.12 C 619.83 423.12 633.01 427.66 633.01 427.66 C 633.01 427.66 664 436 664 436 C 664 436 663 438 663 438 C 663 438 670 438 670 438 C 670 438 669 440 669 440 C 669 440 718 453 718 453 C 718 453 717 455 717 455 C 717 455 724 455 724 455 C 724 455 723 457 723 457 C 732.2 457.1 740.47 462.02 749.17 464.57 C 749.17 464.57 763.72 468.37 763.72 468.37 C 763.72 468.37 816 485.09 816 485.09 C 822.99 486.94 830.95 490.78 838 491 C 838 491 837 493 837 493 C 837 493 844 493 844 493 C 844 493 843 495 843 495 C 843 495 858 498.85 858 498.85 C 858 498.85 882.83 506.11 882.83 506.11 C 882.83 506.11 897 510 897 510 C 897 510 896 512 896 512 C 904.02 512.09 915.08 516.86 923 519.33 C 927.62 520.76 930.02 519.97 933 524 C 933 524 945 525 945 525 C 945 525 944 527 944 527 C 944 527 951 527 951 527 C 951 527 950 529 950 529 C 960.85 529.12 986.38 541.6 999 542 C 999 542 998 544 998 544 C 998 544 1017 548 1017 548 C 1017 548 1016 550 1016 550 C 1022.44 550.18 1031.66 553.73 1038 555.72 C 1042.5 557.12 1044.13 556.16 1047 560 C 1047 560 1065 563 1065 563 C 1065 563 1064 565 1064 565 C 1064 565 1071 565 1071 565 C 1071 565 1070 567 1070 567 C 1075.14 567.05 1090.74 571.26 1094 575 C 1100.01 573.7 1106.75 576.98 1112.42 578.97 C 1114.03 579.54 1116.96 580.26 1117.98 581.59 C 1119.24 583.24 1119 586.96 1119 589 C 1119 589 1119 686 1119 686 C 1119 686 1119 1065 1119 1065 C 1119 1065 1282 1065 1282 1065 C 1282 1065 1282 1492 1282 1492 C 1282 1492 398 1492 398 1492 C 398 1492 398 1279 398 1279 C 398 1279 398.98 1271.47 398.98 1271.47 C 398.98 1271.47 418 1260 418 1260 C 418 1260 441 1251 441 1251 C 441 1251 440 1249 440 1249 C 444.35 1247.95 452.66 1243.94 456 1241 C 456 1241 459 1242 459 1242 C 461.74 1238.37 477.28 1230.61 482 1230 C 482 1230 481 1228 481 1228 C 481 1228 486 1228 486 1228 C 486 1228 485 1226 485 1226 C 485 1226 508 1217 508 1217 C 508 1217 507 1215 507 1215 C 507 1215 539.8 1199.37 539.8 1199.37 C 539.8 1199.37 553 1194 553 1194 C 553 1194 552 1192 552 1192 C 552 1192 583 1179 583 1179 C 583 1179 582 1177 582 1177 C 582 1177 605.39 1166.58 605.39 1166.58 C 605.39 1166.58 612.99 1161.7 612.99 1161.7 C 612.99 1161.7 614 1154 614 1154 C 614 1154 614 996 614 996 C 614 996 614 423.12 614 423.12 Z M 1173 639 C 1173 639 1845 639 1845 639 C 1845 639 1845 1015 1845 1015 C 1845 1015 1173 1015 1173 1015 C 1173 1015 1173 639 1173 639 Z M 1265 876 C 1265 876 1304 841.28 1304 841.28 C 1314.59 832 1326.18 820.63 1330.9 807 C 1333.16 800.48 1333.08 794.75 1333 788 C 1332.94 782.8 1332.3 779.92 1330.64 775 C 1323.38 753.41 1300.28 744.03 1279 744 C 1279 744 1264 744 1264 744 C 1253.23 744.02 1240.47 746.51 1230 749.13 C 1227.38 749.78 1220.35 751.17 1218.6 752.85 C 1216.63 754.74 1217.01 758.47 1217 761 C 1217 761 1217 788 1217 788 C 1224.58 786.2 1233.35 778.98 1250 774.42 C 1266.71 769.85 1289.05 774.02 1290.81 795 C 1291.7 805.58 1284.96 814.01 1278 821 C 1278 821 1236 858.58 1236 858.58 C 1232.62 861.5 1218.87 873.04 1217.6 876.17 C 1216.87 877.95 1217 881.05 1217 883 C 1217 883 1217 907 1217 907 C 1217 907 1334 907 1334 907 C 1334 907 1334 876 1334 876 C 1334 876 1265 876 1265 876 Z M 1418 744.29 C 1410.73 745.49 1403.51 747.35 1397 750.9 C 1362.31 769.78 1359.05 821.57 1365.8 856 C 1371.48 884.91 1391.64 909.63 1423 910 C 1439.94 910.19 1453.65 909.91 1468 899.24 C 1479.2 890.91 1486.44 879.14 1490.66 866 C 1501.27 832.9 1498.45 780.02 1470 756.32 C 1455.59 744.32 1435.99 742.58 1418 744.29 Z M 1724 876 C 1724 876 1763 841.28 1763 841.28 C 1773.59 832 1785.18 820.63 1789.9 807 C 1792.16 800.48 1792.08 794.75 1792 788 C 1791.94 782.8 1791.3 779.92 1789.64 775 C 1782.38 753.41 1759.28 744.03 1738 744 C 1738 744 1723 744 1723 744 C 1712.23 744.02 1699.47 746.51 1689 749.13 C 1686.38 749.78 1679.35 751.17 1677.6 752.85 C 1675.63 754.74 1676.01 758.47 1676 761 C 1676 761 1676 788 1676 788 C 1683.58 786.2 1692.35 778.98 1709 774.42 C 1725.71 769.85 1748.05 774.02 1749.81 795 C 1750.7 805.58 1743.96 814.01 1737 821 C 1737 821 1695 858.58 1695 858.58 C 1691.62 861.5 1677.87 873.04 1676.6 876.17 C 1675.87 877.95 1676 881.05 1676 883 C 1676 883 1676 907 1676 907 C 1676 907 1793 907 1793 907 C 1793 907 1793 876 1793 876 C 1793 876 1724 876 1724 876 Z M 1608 747 C 1608 747 1572 747 1572 747 C 1563.11 747.01 1557.5 748.71 1549 750.58 C 1545.53 751.34 1532.85 753.19 1531.02 755.58 C 1529.76 757.24 1530 760.96 1530 763 C 1530 763 1530 784 1530 784 C 1530 784 1568 777 1568 777 C 1568 777 1568 878 1568 878 C 1568 878 1531 878 1531 878 C 1531 878 1531 907 1531 907 C 1531 907 1644 907 1644 907 C 1644 907 1644 878 1644 878 C 1644 878 1608 878 1608 878 C 1608 878 1608 747 1608 747 Z M 1428 772.53 C 1443.17 772.14 1448.79 781.44 1451.25 795 C 1454.69 812.22 1455.01 842.96 1451.25 860 C 1448.37 872.01 1442.03 882.71 1428 881.47 C 1413.68 880.22 1409.66 869.38 1407.35 857 C 1404.29 839.63 1404.37 814.42 1407.35 797 C 1409.52 783.62 1413.56 774.73 1428 772.53 Z M 1720 1489 C 1720 1489 1720 1143 1720 1143 C 1720.05 1111.9 1738.57 1087.23 1765.96 1073.83 C 1770.18 1071.77 1771.25 1070.8 1776 1069.43 C 1792.61 1064.64 1814.53 1066 1832 1066 C 1850.2 1066 1874.88 1064.52 1892 1069.43 C 1900.55 1071.88 1909.02 1077.12 1916 1082.5 C 1936.08 1097.98 1946.96 1118.5 1947 1144 C 1947 1144 1947 1489 1947 1489 C 1947 1489 1872 1489 1872 1489 C 1872 1489 1872 1322 1872 1322 C 1872 1322 1795 1322 1795 1322 C 1795 1322 1795 1489 1795 1489 C 1795 1489 1720 1489 1720 1489 Z M 2830 1067 C 2830 1067 2844 1067 2844 1067 C 2844 1067 2860 1066 2860 1066 C 2860 1066 2905 1066 2905 1066 C 2905 1066 2905 1404 2905 1404 C 2904.98 1414.56 2903.37 1430.2 2899.54 1440 C 2889.48 1465.71 2862.38 1488.66 2834 1489 C 2834 1489 2787 1489 2787 1489 C 2769.79 1489 2751.52 1490.74 2735 1485.25 C 2730.89 1483.88 2728.69 1482.33 2725 1480.3 C 2700.35 1466.77 2684.04 1442.47 2684 1414 C 2684 1414 2684 1067 2684 1067 C 2684 1067 2758 1067 2758 1067 C 2758 1067 2758 1333 2758 1333 C 2758 1333 2758 1397 2758 1397 C 2758.02 1409.05 2760.47 1412.98 2773 1413 C 2773 1413 2808 1413 2808 1413 C 2812.07 1413 2820.61 1413.57 2823.98 1411.83 C 2829.54 1408.96 2829.97 1404.54 2830 1399 C 2830 1399 2830 1067 2830 1067 Z M 3701 1489 C 3701 1489 3701 1142 3701 1142 C 3701.05 1111.54 3718.5 1088.32 3745 1074.74 C 3748.69 1072.85 3750.97 1071.39 3755 1070.04 C 3762.35 1067.59 3774.23 1066.01 3782 1066 C 3782 1066 3828 1066 3828 1066 C 3843.07 1066 3860.58 1065.09 3874.96 1070.03 C 3883.65 1073.02 3896.04 1081.21 3902.72 1087.46 C 3912.4 1096.52 3920.19 1107.3 3924.25 1120 C 3928.47 1133.18 3928 1145.47 3928 1159 C 3928 1159 3928 1206 3928 1206 C 3928 1206 3928 1489 3928 1489 C 3928 1489 3853 1489 3853 1489 C 3853 1489 3853 1322 3853 1322 C 3853 1322 3776 1322 3776 1322 C 3776 1322 3776 1489 3776 1489 C 3776 1489 3701 1489 3701 1489 Z M 4741 1489 C 4741 1489 4741 1142 4741 1142 C 4741.05 1111.72 4759.23 1086.91 4785.96 1073.83 C 4785.96 1073.83 4794.04 1070.03 4794.04 1070.03 C 4801.25 1067.57 4813.34 1066.01 4821 1066 C 4821 1066 4875 1066 4875 1066 C 4887.02 1066 4902.59 1065.83 4914 1069.76 C 4923.09 1072.89 4937.12 1082.32 4943.99 1089.04 C 4967.32 1111.88 4967 1134.03 4967 1164 C 4967 1164 4967 1206 4967 1206 C 4967 1206 4967 1489 4967 1489 C 4967 1489 4893 1489 4893 1489 C 4893 1489 4893 1322 4893 1322 C 4893 1322 4815 1322 4815 1322 C 4815 1322 4815 1489 4815 1489 C 4815 1489 4741 1489 4741 1489 Z M 1324 1489 C 1324 1489 1324 1165 1324 1165 C 1324 1165 1324 1098 1324 1098 C 1324.03 1079.18 1333.58 1067.03 1353 1067 C 1368.93 1066.98 1384.99 1063.74 1394.32 1080 C 1396.01 1082.95 1396.99 1085.71 1397.76 1089 C 1398.93 1093.92 1398.99 1096.03 1399 1101 C 1399 1101 1399 1489 1399 1489 C 1399 1489 1324 1489 1324 1489 Z M 1443 1491 C 1443 1491 1443 1165 1443 1165 C 1443 1165 1443 1098 1443 1098 C 1443.03 1079.11 1452.5 1067.03 1472 1067 C 1472 1067 1509 1067 1509 1067 C 1509 1067 1504.61 1081 1504.61 1081 C 1504.61 1081 1517.56 1098 1517.56 1098 C 1517.56 1098 1534.14 1132 1534.14 1132 C 1534.14 1132 1583.69 1241 1583.69 1241 C 1583.69 1241 1610 1298 1610 1298 C 1610 1298 1608 1231 1608 1231 C 1608 1231 1607 1216 1607 1216 C 1607 1216 1606 1179 1606 1179 C 1606 1179 1605 1165 1605 1165 C 1605 1165 1605 1152 1605 1152 C 1605 1152 1603.96 1137 1603.96 1137 C 1603.96 1137 1603.96 1123 1603.96 1123 C 1603.96 1123 1602.96 1111 1602.96 1111 C 1602.96 1111 1602.96 1096 1602.96 1096 C 1602.96 1096 1602 1085 1602 1085 C 1602 1085 1602 1067 1602 1067 C 1602 1067 1658 1067 1658 1067 C 1661.48 1067 1673.99 1066.08 1675.98 1068.6 C 1677.23 1070.19 1677 1074.01 1677 1076 C 1677 1076 1677 1364 1677 1364 C 1677 1364 1677 1455 1677 1455 C 1676.93 1469.74 1674.03 1482.69 1659 1488.73 C 1654.58 1490.5 1653.83 1490.92 1649 1491 C 1649 1491 1626 1491 1626 1491 C 1616.84 1490.98 1618 1491.34 1611 1475 C 1611 1475 1595.03 1441 1595.03 1441 C 1595.03 1441 1546.26 1340 1546.26 1340 C 1546.26 1340 1529.78 1306 1529.78 1306 C 1529.78 1306 1518 1282 1518 1282 C 1518 1282 1518 1442 1518 1442 C 1518 1442 1518 1476 1518 1476 C 1518 1476 1516.98 1489.4 1516.98 1489.4 C 1516.98 1489.4 1509 1491 1509 1491 C 1509 1491 1443 1491 1443 1491 Z M 1992 1067 C 1992 1067 2067 1067 2067 1067 C 2067 1067 2067 1413 2067 1413 C 2067 1413 2174 1413 2174 1413 C 2174 1413 2174 1489 2174 1489 C 2174 1489 2078 1489 2078 1489 C 2061.47 1489 2039.24 1490.7 2024 1484.21 C 2001.38 1474.59 1992.04 1451.2 1992 1428 C 1992 1428 1992 1067 1992 1067 Z M 2414 1067 C 2414 1067 2488 1067 2488 1067 C 2487.03 1073.02 2484.46 1074.14 2481 1079 C 2481 1079 2524 1073.72 2524 1073.72 C 2524 1073.72 2536 1071.24 2536 1071.24 C 2536 1071.24 2548 1069.72 2548 1069.72 C 2561.8 1067.92 2576.71 1065.09 2590 1071.03 C 2617.34 1083.27 2630.96 1116.33 2631 1145 C 2631 1145 2631 1184 2631 1184 C 2631 1184 2631 1212 2631 1212 C 2631 1227.48 2632.82 1254.61 2626 1268 C 2632.45 1271.55 2634.81 1279.18 2636.34 1286 C 2639.87 1301.76 2639 1317.97 2639 1334 C 2639 1334 2639 1395 2639 1395 C 2639 1414.63 2640.25 1428.02 2632.8 1447 C 2623.62 1470.35 2606.53 1488.96 2580 1489 C 2580 1489 2414 1489 2414 1489 C 2414 1489 2414 1067 2414 1067 Z M 2948 1067 C 2948 1067 3060 1067 3060 1067 C 3075.28 1067 3102.15 1065.75 3116 1069.75 C 3120.46 1071.04 3122.06 1072.25 3126 1074.2 C 3138.41 1080.31 3147.26 1087.7 3155.51 1099 C 3171.73 1121.21 3171 1141.2 3171 1167 C 3171 1167 3171 1219 3171 1219 C 3171 1238.48 3172.68 1257.22 3166.66 1276 C 3160.74 1294.46 3149.97 1306.81 3132 1314.2 C 3125.27 1316.97 3125.56 1317.91 3118 1318 C 3118 1318 3173.72 1450 3173.72 1450 C 3173.72 1450 3186.4 1480 3186.4 1480 C 3187.32 1482.27 3190.28 1488.22 3188.88 1490.4 C 3187.61 1492.37 3183.08 1492 3181 1492 C 3181 1492 3121 1492 3121 1492 C 3118.25 1491.99 3114.83 1492.35 3112.64 1490.4 C 3110.63 1488.62 3108.02 1481.74 3106.85 1479 C 3106.85 1479 3096.01 1453 3096.01 1453 C 3096.01 1453 3057.4 1361 3057.4 1361 C 3057.4 1361 3041 1320 3041 1320 C 3041 1320 3022 1320 3022 1320 C 3022 1320 3022 1452 3022 1452 C 3022 1452 3022 1483 3022 1483 C 3022 1484.99 3022.23 1488.81 3020.98 1490.4 C 3019.41 1492.38 3015.3 1492 3013 1492 C 3013 1492 2957 1492 2957 1492 C 2948.36 1491.98 2948.02 1491.64 2948 1483 C 2948 1483 2948 1067 2948 1067 Z M 3228 1491 C 3228 1491 3228 1165 3228 1165 C 3228 1165 3228 1098 3228 1098 C 3228.03 1079.04 3237.42 1067.03 3257 1067 C 3257 1067 3294 1067 3294 1067 C 3294 1067 3289.61 1081 3289.61 1081 C 3289.61 1081 3302.56 1098 3302.56 1098 C 3302.56 1098 3319.69 1133 3319.69 1133 C 3319.69 1133 3365.14 1233 3365.14 1233 C 3365.14 1233 3395 1298 3395 1298 C 3395 1298 3394 1281 3394 1281 C 3394 1281 3392 1222 3392 1222 C 3392 1222 3391.04 1210 3391.04 1210 C 3391.04 1210 3391.04 1197 3391.04 1197 C 3391.04 1197 3389.96 1180 3389.96 1180 C 3389.96 1180 3389.96 1167 3389.96 1167 C 3389.96 1167 3388.96 1155 3388.96 1155 C 3388.96 1155 3388.96 1142 3388.96 1142 C 3388.96 1142 3387.96 1130 3387.96 1130 C 3387.96 1130 3387.96 1116 3387.96 1116 C 3387.96 1116 3387 1104 3387 1104 C 3387 1104 3386 1076 3386 1076 C 3386 1074.01 3385.77 1070.19 3387.02 1068.6 C 3388.59 1066.62 3392.7 1067 3395 1067 C 3395 1067 3453 1067 3453 1067 C 3461.64 1067.02 3461.98 1067.36 3462 1076 C 3462 1076 3462 1454 3462 1454 C 3461.99 1458.09 3461.38 1466.13 3460.47 1470 C 3457.66 1482.03 3446.23 1490.79 3434 1491 C 3434 1491 3411 1491 3411 1491 C 3408.25 1490.99 3404.83 1491.35 3402.64 1489.4 C 3400.58 1487.58 3395.97 1476.2 3394.58 1473 C 3394.58 1473 3379.86 1441 3379.86 1441 C 3379.86 1441 3330.26 1338 3330.26 1338 C 3330.26 1338 3309.36 1295 3309.36 1295 C 3309.36 1295 3303 1282 3303 1282 C 3303 1282 3303 1442 3303 1442 C 3303 1442 3303 1476 3303 1476 C 3303 1476 3301.98 1489.4 3301.98 1489.4 C 3301.98 1489.4 3294 1491 3294 1491 C 3294 1491 3228 1491 3228 1491 Z M 3973 1067 C 3973 1067 4029 1067 4029 1067 C 4032.48 1067 4044.99 1066.08 4046.98 1068.6 C 4048.23 1070.19 4048 1074.01 4048 1076 C 4048 1076 4048 1307 4048 1307 C 4048 1307 4048 1378 4048 1378 C 4048 1386.03 4048.87 1406.43 4047 1413 C 4047 1413 4154 1413 4154 1413 C 4154 1413 4154 1489 4154 1489 C 4154 1489 4058 1489 4058 1489 C 4041.25 1489 4019.53 1490.71 4004.09 1483.91 C 3982.16 1474.25 3973.04 1450.63 3973 1428 C 3973 1428 3973 1067 3973 1067 Z M 4199 1067 C 4199 1067 4346 1067 4346 1067 C 4355.52 1067.01 4365.36 1068.49 4374 1072.58 C 4383.18 1076.93 4387 1078.86 4394.83 1085.81 C 4411.85 1100.9 4421.96 1124.32 4422 1147 C 4422 1147 4422 1169 4422 1169 C 4422 1169 4422 1214 4422 1214 C 4422 1241.42 4425.2 1268.93 4409.11 1293 C 4399.18 1307.86 4381.26 1319.78 4363 1320 C 4363 1320 4334 1320 4334 1320 C 4334 1320 4273 1320 4273 1320 C 4273 1320 4273 1452 4273 1452 C 4273 1452 4273 1483 4273 1483 C 4273 1484.99 4273.23 1488.81 4271.98 1490.4 C 4270.41 1492.38 4266.3 1492 4264 1492 C 4264 1492 4208 1492 4208 1492 C 4199.36 1491.98 4199.02 1491.64 4199 1483 C 4199 1483 4199 1067 4199 1067 Z M 4467 1489 C 4467 1489 4467 1165 4467 1165 C 4467 1165 4467 1098 4467 1098 C 4467.02 1086.69 4471.66 1073.72 4483 1069 C 4487.02 1067.33 4493.64 1067.01 4498 1067 C 4498 1067 4542 1067 4542 1067 C 4542 1067 4542 1236 4542 1236 C 4542 1236 4623 1236 4623 1236 C 4623 1236 4623 1068 4623 1068 C 4623 1068 4661 1067 4661 1067 C 4667.8 1067 4675.66 1066.31 4681.99 1068.93 C 4693.17 1073.56 4697.98 1085.71 4698 1097 C 4698 1097 4698 1489 4698 1489 C 4698 1489 4623 1489 4623 1489 C 4623 1489 4623 1314 4623 1314 C 4623 1314 4542 1314 4542 1314 C 4542 1314 4542 1489 4542 1489 C 4542 1489 4467 1489 4467 1489 Z M 1872 1245 C 1872 1245 1872 1159 1872 1159 C 1871.94 1146.86 1870.29 1144.02 1858 1144 C 1858 1144 1815 1144 1815 1144 C 1810.78 1144 1801.5 1143.22 1798.28 1145.74 C 1794.64 1148.57 1795.01 1153.88 1795 1158 C 1795 1158 1795 1245 1795 1245 C 1795 1245 1872 1245 1872 1245 Z M 3022 1243 C 3022 1243 3087 1243 3087 1243 C 3096.75 1242.98 3096.98 1241.52 3097 1232 C 3097 1232 3097 1164 3097 1164 C 3096.98 1151.01 3094.31 1144.02 3080 1144 C 3080 1144 3022 1144 3022 1144 C 3022 1144 3022 1243 3022 1243 Z M 3853 1245 C 3853 1245 3853 1159 3853 1159 C 3852.94 1147.4 3850.76 1144.02 3839 1144 C 3839 1144 3796 1144 3796 1144 C 3791.78 1144 3782.5 1143.22 3779.28 1145.74 C 3775.64 1148.57 3776.01 1153.88 3776 1158 C 3776 1158 3776 1245 3776 1245 C 3776 1245 3853 1245 3853 1245 Z M 4273 1243 C 4273 1243 4338 1243 4338 1243 C 4347.75 1242.98 4347.98 1241.52 4348 1232 C 4348 1232 4348 1164 4348 1164 C 4347.98 1151.01 4345.31 1144.02 4331 1144 C 4331 1144 4273 1144 4273 1144 C 4273 1144 4273 1243 4273 1243 Z M 4893 1246 C 4893 1246 4893 1160 4893 1160 C 4892.98 1147.23 4891.03 1144.02 4878 1144 C 4878 1144 4835 1144 4835 1144 C 4830.78 1144 4821.5 1143.22 4818.28 1145.74 C 4814.64 1148.57 4815.01 1153.88 4815 1158 C 4815 1158 4815 1246 4815 1246 C 4815 1246 4854 1245 4854 1245 C 4854 1245 4893 1246 4893 1246 Z M 2489 1145 C 2489 1145 2488 1173 2488 1173 C 2488 1173 2488 1235 2488 1235 C 2488 1235 2546 1235 2546 1235 C 2556.68 1234.94 2557.98 1232.08 2558 1222 C 2558 1222 2558 1158 2558 1158 C 2557.94 1147.32 2555.08 1146.02 2545 1146 C 2545 1146 2509 1146 2509 1146 C 2502.77 1146 2494.89 1146.67 2489 1145 Z M 2488 1414 C 2488 1414 2554 1414 2554 1414 C 2564.75 1413.98 2565.98 1411.32 2566 1401 C 2566 1401 2566 1326 2566 1326 C 2565.99 1320.15 2566.18 1314.55 2559 1313.08 C 2559 1313.08 2553 1313.08 2553 1313.08 C 2553 1313.08 2488 1313.08 2488 1313.08 C 2488 1313.08 2488 1414 2488 1414 Z" stroke-linecap="round" />
</g>
</svg>