<?xml version="1.0" encoding="UTF-8" standalone="no" ?>
<!DOCTYPE svg PUBLIC "-//W3C//DTD SVG 1.1//EN" "http://www.w3.org/Graphics/SVG/1.1/DTD/svg11.dtd">
<svg xmlns="http://www.w3.org/2000/svg" xmlns:xlink="http://www.w3.org/1999/xlink" version="1.1" width="1000" height="300" viewBox="0 0 1000 300" xml:space="preserve">
<desc>Created with Fabric.js 3.6.6</desc>
<defs>
</defs>
<g transform="matrix(0.2 0 0 0.2 500.03 150.08)" id="Selection"  >
<path style="stroke: rgb(255,255,255); stroke-width: 1; stroke-dasharray: none; stroke-linecap: butt; stroke-dashoffset: 0; stroke-linejoin: miter; stroke-miterlimit: 4; fill: rgb(255,255,255); fill-rule: nonzero; opacity: 1;"  transform=" translate(-2500, -750)" d="M 0 1136 C 4.82 1125.22 17.65 1113.09 25.83 1104 C 25.83 1104 73.84 1050 73.84 1050 C 73.84 1050 125.17 992 125.17 992 C 125.17 992 158.91 956 158.91 956 C 158.91 956 236.91 872 236.91 872 C 236.91 872 524.91 561 524.91 561 C 524.91 561 580.09 501 580.09 501 C 580.09 501 730.09 339 730.09 339 C 730.09 339 787.83 277 787.83 277 C 787.83 277 825.83 236 825.83 236 C 825.83 236 853.04 206 853.04 206 C 853.04 206 897 162.04 897 162.04 C 897 162.04 909.99 150 909.99 150 C 909.99 150 929.09 129 929.09 129 C 929.09 129 978.83 76 978.83 76 C 978.83 76 1027.72 23 1027.72 23 C 1033.63 16.28 1045.47 1.81 1054 0 C 1054 0 1058.04 33 1058.04 33 C 1058.04 33 1058.04 49 1058.04 49 C 1058.04 49 1059 61 1059 61 C 1059 61 1059 144 1059 144 C 1059 144 1058 159 1058 159 C 1058 159 1058 243 1058 243 C 1058 243 1059 257 1059 257 C 1059 257 1059 261 1059 261 C 1059 261 1060 279 1060 279 C 1060 279 1060.91 289 1060.91 289 C 1060.91 289 1062 311 1062 311 C 1062 311 1063 328 1063 328 C 1063 328 1063 476 1063 476 C 1063 476 1112.09 423 1112.09 423 C 1112.09 423 1211.09 316 1211.09 316 C 1211.09 316 1311.09 208 1311.09 208 C 1311.09 208 1377.72 136 1377.72 136 C 1406.64 103.14 1436.04 70.96 1467 40 C 1475.83 31.17 1485.07 22.24 1495 14.65 C 1500.54 10.43 1506.04 6.31 1513 5 C 1513 5 1513 778 1513 778 C 1513 778 1539.09 750 1539.09 750 C 1539.09 750 1590.17 695 1590.17 695 C 1590.17 695 1647.91 633 1647.91 633 C 1647.91 633 1716.09 559 1716.09 559 C 1716.09 559 1919.09 340 1919.09 340 C 1919.09 340 1995.09 258 1995.09 258 C 1995.09 258 2038.83 211 2038.83 211 C 2038.83 211 2143.09 98 2143.09 98 C 2143.09 98 2175.83 63 2175.83 63 C 2189.02 48.42 2203.93 30.97 2219 18.62 C 2225.59 13.21 2234.53 6.59 2243 5 C 2243 5 2243 886 2243 886 C 2243 886 2271.09 856 2271.09 856 C 2271.09 856 2320.17 803 2320.17 803 C 2320.17 803 2377.91 741 2377.91 741 C 2377.91 741 2446.09 667 2446.09 667 C 2446.09 667 2819.91 264 2819.91 264 C 2819.91 264 2863.09 217 2863.09 217 C 2863.09 217 2906.83 170 2906.83 170 C 2906.83 170 2960.04 112 2960.04 112 C 2960.04 112 2995.99 76 2995.99 76 C 2995.99 76 3005.04 66 3005.04 66 C 3005.04 66 3027.96 43 3027.96 43 C 3027.96 43 3045 25 3045 25 C 3050.67 19.33 3061.37 7.14 3068 4 C 3068 4 3068 221 3068 221 C 3068 221 3068 330 3068 330 C 3068 330 3069 345 3069 345 C 3069 345 3069 362 3069 362 C 3069 362 3070 377 3070 377 C 3070 377 3070 396 3070 396 C 3070 396 3071 412 3071 412 C 3071 412 3071 443 3071 443 C 3071 443 3072 464 3072 464 C 3072 464 3074 491 3074 491 C 3077.25 479.87 3094.93 459.23 3102.87 450 C 3102.87 450 3152.17 394 3152.17 394 C 3152.17 394 3168.83 377 3168.83 377 C 3168.83 377 3236.91 305 3236.91 305 C 3236.91 305 3367.09 164 3367.09 164 C 3367.09 164 3403.17 125 3403.17 125 C 3403.17 125 3412.72 115 3412.72 115 C 3412.72 115 3478.17 44 3478.17 44 C 3478.17 44 3487.72 34 3487.72 34 C 3495.05 25.69 3502.81 18.36 3511 10.93 C 3516.22 6.19 3520.89 1.45 3528 0 C 3528 0 3528 746 3528 746 C 3528 746 3576.09 694 3576.09 694 C 3576.09 694 3676.09 586 3676.09 586 C 3676.09 586 4011.91 224 4011.91 224 C 4011.91 224 4081.09 149 4081.09 149 C 4081.09 149 4134.91 92 4134.91 92 C 4149.39 76.46 4164.05 60.77 4180 46.72 C 4183.92 43.26 4191.05 35.25 4195 33.31 C 4200.12 30.8 4225.65 28.72 4233 27.85 C 4233 27.85 4259 25.09 4259 25.09 C 4259 25.09 4282 23.83 4282 23.83 C 4282 23.83 4308 21.91 4308 21.91 C 4308 21.91 4320 21 4320 21 C 4320 21 5000 21 5000 21 C 4999.88 30.91 4995.44 33.86 4989.15 41 C 4989.15 41 4971.87 61 4971.87 61 C 4971.87 61 4891.27 155 4891.27 155 C 4891.27 155 4812.41 247 4812.41 247 C 4801.68 259.89 4780.33 286.97 4767 295.07 C 4755.62 302 4739.23 304.98 4726 305 C 4726 305 4373 305 4373 305 C 4348.72 305.04 4337.94 318.06 4322 334 C 4322 334 4277.25 384 4277.25 384 C 4277.25 384 4251 415 4251 415 C 4251 415 4283 416 4283 416 C 4283 416 4300 417 4300 417 C 4300 417 4320 417 4320 417 C 4320 417 4335 418 4335 418 C 4335 418 4352 418 4352 418 C 4352 418 4369 419 4369 419 C 4369 419 4397 419 4397 419 C 4397 419 4414 420 4414 420 C 4414 420 4428 420 4428 420 C 4428 420 4443 421 4443 421 C 4438.08 432.01 4427.3 441.89 4419.28 451 C 4419.28 451 4376.16 500 4376.16 500 C 4376.16 500 4290.83 597 4290.83 597 C 4290.83 597 4238.28 655 4238.28 655 C 4238.28 655 4207.17 687 4207.17 687 C 4201.23 693.56 4188.74 708.07 4181 711.36 C 4175.99 713.5 4172.05 712.69 4167 713.17 C 4167 713.17 4145 715 4145 715 C 4145 715 4021 715 4021 715 C 4001.1 715 3993.21 714.34 3973 717.59 C 3968.35 718.34 3958.9 719.58 3955 721.41 C 3949.18 724.14 3943.56 730.44 3939 735 C 3939 735 3921 752 3921 752 C 3901.25 771.72 3883.41 792.81 3865.27 814 C 3865.27 814 3841 842 3841 842 C 3841 842 4533 842 4533 842 C 4523.74 873.68 4494.42 897.03 4473.28 921 C 4473.28 921 4419.17 981 4419.17 981 C 4419.17 981 4364.83 1042 4364.83 1042 C 4364.83 1042 4333.42 1077 4333.42 1077 C 4322.85 1089.2 4300.2 1116.34 4288 1124.48 C 4276.58 1132.09 4260.63 1135.98 4247 1136 C 4247 1136 3185 1136 3185 1136 C 3188.29 1126.75 3194.52 1119.44 3200.75 1112 C 3215.78 1094.06 3238.83 1074.68 3245.8 1052 C 3249.17 1041 3249.29 1029.38 3250.09 1018 C 3250.09 1018 3251 1006 3251 1006 C 3251 1006 3251 950 3251 950 C 3251 950 3251 762 3251 762 C 3251 762 3221.91 793 3221.91 793 C 3221.91 793 3146.91 874 3146.91 874 C 3146.91 874 3008.91 1023 3008.91 1023 C 3008.91 1023 2985.09 1047 2985.09 1047 C 2985.09 1047 2903 1133 2903 1133 C 2893.16 1142.96 2876.64 1162.38 2866 1170 C 2866 1170 2866 686 2866 686 C 2866 686 2825.83 730 2825.83 730 C 2825.83 730 2752.83 810 2752.83 810 C 2752.83 810 2549.17 1033 2549.17 1033 C 2549.17 1033 2508.91 1078 2508.91 1078 C 2508.91 1078 2477.09 1111 2477.09 1111 C 2467.46 1121.33 2451.04 1138.57 2438 1143.91 C 2432.05 1146.34 2425.37 1146.99 2419 1147 C 2419 1147 1971 1147 1971 1147 C 1971 1147 1971 767 1971 767 C 1971 767 1945.91 794 1945.91 794 C 1945.91 794 1910.09 832 1910.09 832 C 1910.09 832 1880.96 864 1880.96 864 C 1880.96 864 1820.04 924 1820.04 924 C 1820.04 924 1787.91 959 1787.91 959 C 1787.91 959 1662.91 1094 1662.91 1094 C 1662.91 1094 1537.91 1229 1537.91 1229 C 1537.91 1229 1456.17 1317 1456.17 1317 C 1456.17 1317 1330.07 1454 1330.07 1454 C 1313.3 1472.49 1294.85 1499.96 1267 1500 C 1267 1500 851 1500 851 1500 C 856.63 1488.45 872.03 1471.15 880.73 1461 C 880.73 1461 902.91 1437 902.91 1437 C 902.91 1437 953.99 1384 953.99 1384 C 953.99 1384 962.09 1375.17 962.09 1375.17 C 962.09 1375.17 986.96 1351 986.96 1351 C 986.96 1351 1011.09 1325 1011.09 1325 C 1011.09 1325 1022.91 1313 1022.91 1313 C 1022.91 1313 1078.91 1253 1078.91 1253 C 1078.91 1253 1135.04 1192 1135.04 1192 C 1135.04 1192 1191.04 1132 1191.04 1132 C 1203.07 1119.42 1225.08 1095.84 1231.53 1080 C 1234.26 1073.27 1234.97 1059.48 1235 1052 C 1235 1052 1236 1036 1236 1036 C 1236 1036 1236 767 1236 767 C 1236 767 1211.91 793 1211.91 793 C 1211.91 793 1136.91 874 1136.91 874 C 1136.91 874 1023.91 996 1023.91 996 C 1023.91 996 965.17 1059 965.17 1059 C 965.17 1059 919.17 1109 919.17 1109 C 907.48 1121.93 895.92 1135.49 883 1147.17 C 873.4 1155.85 858.65 1171 846 1174 C 846 1174 846 1019 846 1019 C 846 1019 845 1005 845 1005 C 845 1005 845 1001 845 1001 C 845 1001 844 986 844 986 C 844 986 842 956 842 956 C 842 956 842 947 842 947 C 842 947 841 935 841 935 C 841 935 841 708 841 708 C 841 708 813.91 737 813.91 737 C 813.91 737 747.91 808 747.91 808 C 747.91 808 638.09 926 638.09 926 C 638.09 926 602.17 965 602.17 965 C 602.17 965 585.91 982.96 585.91 982.96 C 585.91 982.96 575 993 575 993 C 575 993 531 1037 531 1037 C 531 1037 461 1107 461 1107 C 461 1107 438 1129.42 438 1129.42 C 438 1129.42 428 1137.49 428 1137.49 C 428 1137.49 410 1140.08 410 1140.08 C 410 1140.08 385 1142 385 1142 C 385 1142 220 1142 220 1142 C 220 1142 195 1140.09 195 1140.09 C 195 1140.09 172 1139 172 1139 C 172 1139 159 1138 159 1138 C 159 1138 126 1136 126 1136 C 126 1136 0 1136 0 1136 Z M 3971 1414 C 3971 1414 3947 1414 3947 1414 C 3944.61 1414 3941.31 1414.21 3939.21 1412.98 C 3936.62 1411.47 3934.19 1406.66 3932.78 1404 C 3932.78 1404 3923.7 1386 3923.7 1386 C 3908.47 1352.23 3904.35 1319.06 3913.63 1283 C 3917.41 1268.33 3923.43 1254.25 3930.7 1241 C 3937.92 1227.84 3937.16 1227.02 3947 1227 C 3947 1227 3971 1227 3971 1227 C 3971 1227 3965.31 1238 3965.31 1238 C 3953.82 1262.83 3946.79 1284.61 3944.91 1312 C 3944.65 1315.88 3943.85 1317.71 3944.09 1322 C 3945.75 1351.35 3952.99 1376.37 3965.31 1403 C 3965.31 1403 3971 1414 3971 1414 Z M 4836 1227 C 4836 1227 4860 1227 4860 1227 C 4861.94 1227 4865.14 1226.88 4866.9 1227.6 C 4870.74 1229.17 4874.85 1238.23 4876.75 1242 C 4883.95 1256.29 4889.33 1267.3 4893.37 1283 C 4902.22 1317.38 4898.98 1354 4883.24 1386 C 4883.24 1386 4873.58 1405 4873.58 1405 C 4872.22 1407.4 4870.14 1411.6 4867.79 1412.98 C 4865.7 1414.21 4862.38 1414 4860 1414 C 4860 1414 4836 1414 4836 1414 C 4844.13 1395.68 4849.63 1387.83 4855.57 1367 C 4864.74 1334.88 4864.88 1304 4854.98 1272 C 4849.11 1253.05 4843.65 1244.15 4836 1227 Z M 3360 1231.22 C 3360 1231.22 3368 1231.22 3368 1231.22 C 3386.53 1230.97 3400.42 1231.6 3414.96 1245.17 C 3438.37 1267.03 3440.2 1313.82 3432.87 1343 C 3429.84 1355.09 3424.33 1367.27 3414.99 1375.83 C 3399.64 1389.87 3385.41 1390.22 3366 1390 C 3338.24 1389.67 3321.13 1369.97 3313.72 1345 C 3309.2 1329.76 3309.82 1314.7 3310 1299 C 3310.09 1291.26 3312.24 1280.37 3314.67 1273 C 3322.34 1249.71 3335.49 1236.03 3360 1231.22 Z M 3713 1305 C 3705.07 1300.87 3699.2 1298.77 3693.63 1291 C 3688.17 1283.37 3687.9 1276.94 3688 1268 C 3688.14 1256.76 3692.74 1247.27 3702 1240.63 C 3714.86 1231.43 3730.9 1231 3746 1231 C 3757.52 1231 3768.15 1231.23 3779 1235.87 C 3796.88 1243.52 3802.21 1254.41 3802 1273 C 3801.92 1279.71 3800.33 1285.47 3796.37 1291 C 3790.57 1299.09 3784.51 1301.24 3776 1305 C 3783.37 1306.99 3791.63 1311.22 3796.67 1317.04 C 3808.32 1330.48 3808.36 1356.86 3798.07 1371 C 3788.44 1384.25 3769.82 1389.92 3754 1390 C 3734.6 1390.09 3713.96 1391.01 3698 1377.67 C 3681.96 1364.26 3679.46 1334.2 3692.52 1318.01 C 3698.01 1311.2 3705.15 1308.14 3713 1305 Z M 4004 1239 C 4004 1239 4023 1234.21 4023 1234.21 C 4051.26 1228.2 4100.14 1225.94 4111.64 1260 C 4114.24 1267.67 4114.01 1270.16 4114 1278 C 4113.97 1299.47 4100.21 1312.94 4085 1326.28 C 4085 1326.28 4049 1358 4049 1358 C 4049 1358 4115 1358 4115 1358 C 4115 1358 4115 1387 4115 1387 C 4115 1387 4003 1387 4003 1387 C 4003 1387 4003 1365 4003 1365 C 4003 1363.01 4002.88 1359.9 4003.6 1358.09 C 4004.98 1354.59 4018.39 1343.7 4022 1340.58 C 4022 1340.58 4053 1313.15 4053 1313.15 C 4062.37 1304.91 4072.3 1296.37 4073.47 1283 C 4074.7 1269.03 4062.05 1259.16 4049 1259 C 4026.06 1258.73 4017.24 1269.82 4004 1274 C 4004 1274 4004 1239 4004 1239 Z M 4193 1231.22 C 4193 1231.22 4201 1231.22 4201 1231.22 C 4219.53 1230.97 4233.42 1231.6 4247.96 1245.17 C 4271.37 1267.03 4273.2 1313.82 4265.87 1343 C 4262.84 1355.09 4257.33 1367.27 4247.99 1375.83 C 4232.64 1389.87 4218.41 1390.22 4199 1390 C 4171.24 1389.67 4154.13 1369.97 4146.72 1345 C 4142.2 1329.76 4142.82 1314.7 4143 1299 C 4143.09 1291.26 4145.24 1280.37 4147.67 1273 C 4155.34 1249.71 4168.49 1236.03 4193 1231.22 Z M 4339 1231.22 C 4339 1231.22 4347 1231.22 4347 1231.22 C 4365.53 1230.97 4379.42 1231.6 4393.96 1245.17 C 4417.37 1267.03 4419.2 1313.82 4411.87 1343 C 4408.84 1355.09 4403.33 1367.27 4393.99 1375.83 C 4378.64 1389.87 4364.41 1390.22 4345 1390 C 4317.24 1389.67 4300.13 1369.97 4292.72 1345 C 4288.2 1329.76 4288.82 1314.7 4289 1299 C 4289.09 1291.26 4291.24 1280.37 4293.67 1273 C 4301.34 1249.71 4314.49 1236.03 4339 1231.22 Z M 4445 1237 C 4445 1237 4467 1232.42 4467 1232.42 C 4485.96 1229.48 4515.73 1229.41 4533 1238.27 C 4547.65 1245.79 4551.18 1257.78 4551 1273 C 4550.92 1279.89 4549.27 1286.33 4545.21 1292 C 4539.71 1299.68 4534.08 1301.43 4526 1305 C 4535.02 1308.15 4542.49 1312.01 4548.21 1320 C 4558.02 1333.68 4556.95 1356.61 4547.07 1370 C 4543.64 1374.66 4539.93 1377.45 4535 1380.37 C 4516.7 1391.22 4482.63 1392.04 4462 1388.57 C 4462 1388.57 4439 1383 4439 1383 C 4439 1383 4439 1352 4439 1352 C 4439 1352 4457 1358.28 4457 1358.28 C 4469.58 1362.03 4473.21 1362.06 4486 1362 C 4493.11 1361.97 4500.16 1360.84 4506 1356.45 C 4515.61 1349.21 4517.21 1337.53 4507.96 1329.21 C 4500.6 1322.59 4493.08 1322.54 4484 1321.91 C 4484 1321.91 4465 1321 4465 1321 C 4465 1321 4465 1296 4465 1296 C 4475.96 1296 4495.36 1296.58 4503.98 1289.61 C 4505.92 1288.05 4507.66 1286.2 4508.86 1284 C 4514.5 1273.69 4506.75 1264.03 4497 1260.55 C 4493 1259.12 4490.15 1259.02 4486 1259 C 4474.6 1258.95 4472.2 1259.08 4461 1262.15 C 4461 1262.15 4445 1267 4445 1267 C 4445 1267 4445 1237 4445 1237 Z M 3540 1234 C 3540 1234 3656 1234 3656 1234 C 3656 1234 3656 1249 3656 1249 C 3656 1249 3655.47 1257 3655.47 1257 C 3655.47 1257 3641.78 1288 3641.78 1288 C 3641.78 1288 3612.69 1352 3612.69 1352 C 3612.69 1352 3601.69 1376 3601.69 1376 C 3601.69 1376 3596.3 1386.01 3596.3 1386.01 C 3596.3 1386.01 3589 1387 3589 1387 C 3589 1387 3557 1387 3557 1387 C 3557 1387 3575.14 1346 3575.14 1346 C 3575.14 1346 3613 1263 3613 1263 C 3613 1263 3540 1263 3540 1263 C 3540 1263 3540 1234 3540 1234 Z M 4719 1255 C 4719 1255 4745 1255 4745 1255 C 4745 1255 4745 1309 4745 1309 C 4745 1309 4798 1309 4798 1309 C 4798 1309 4798 1333 4798 1333 C 4798 1333 4745 1333 4745 1333 C 4745 1333 4745 1387 4745 1387 C 4745 1387 4719 1387 4719 1387 C 4719 1387 4719 1333 4719 1333 C 4719 1333 4666 1333 4666 1333 C 4666 1333 4666 1309 4666 1309 C 4666 1309 4719 1309 4719 1309 C 4719 1309 4719 1255 4719 1255 Z M 3739 1257.33 C 3724.4 1260.97 3722.44 1279.16 3731.21 1287.78 C 3735.88 1292.37 3744.85 1292.78 3751 1291.67 C 3764.47 1289.24 3767.63 1271.35 3759.61 1262.11 C 3754.5 1256.22 3746.09 1256.54 3739 1257.33 Z M 3368 1259.57 C 3356.51 1262.44 3354.1 1271.62 3352 1282 C 3348.91 1297.29 3349.2 1327.84 3352.9 1343 C 3356.2 1356.53 3363.18 1364.34 3378 1361.67 C 3390.15 1359.48 3393.39 1345.37 3394.72 1335 C 3394.72 1335 3396 1319 3396 1319 C 3396.02 1304.83 3396.63 1289.77 3392.84 1276 C 3390.93 1269.05 3387.36 1262.11 3380 1259.57 C 3376.33 1258.65 3371.77 1258.9 3368 1259.57 Z M 4201 1259.57 C 4189.51 1262.44 4187.1 1271.62 4185 1282 C 4181.91 1297.29 4182.2 1327.84 4185.9 1343 C 4189.2 1356.53 4196.18 1364.34 4211 1361.67 C 4223.15 1359.48 4226.39 1345.37 4227.72 1335 C 4227.72 1335 4229 1319 4229 1319 C 4229.02 1304.83 4229.63 1289.77 4225.84 1276 C 4223.93 1269.05 4220.36 1262.11 4213 1259.57 C 4209.33 1258.65 4204.77 1258.9 4201 1259.57 Z M 4347 1259.57 C 4335.51 1262.44 4333.1 1271.62 4331 1282 C 4327.91 1297.29 4328.2 1327.84 4331.9 1343 C 4335.2 1356.53 4342.18 1364.34 4357 1361.67 C 4369.15 1359.48 4372.39 1345.37 4373.72 1335 C 4373.72 1335 4375 1319 4375 1319 C 4375.02 1304.83 4375.63 1289.77 4371.84 1276 C 4369.93 1269.05 4366.36 1262.11 4359 1259.57 C 4355.33 1258.65 4350.77 1258.9 4347 1259.57 Z M 3738 1319.39 C 3725.65 1323.1 3722.87 1331.22 3723 1343 C 3723.15 1355.61 3730.07 1363.84 3743 1364 C 3748.88 1364.07 3754.05 1364.41 3758.98 1360.58 C 3770.36 1351.78 3770.1 1329.82 3758 1321.7 C 3752.93 1318.3 3743.89 1318.6 3738 1319.39 Z M 3467 1347 C 3467 1347 3505 1347 3505 1347 C 3505 1347 3505 1387 3505 1387 C 3505 1387 3467 1387 3467 1387 C 3467 1387 3467 1347 3467 1347 Z" stroke-linecap="round" />
</g>
</svg>