<?xml version="1.0" encoding="UTF-8" standalone="no" ?>
<!DOCTYPE svg PUBLIC "-//W3C//DTD SVG 1.1//EN" "http://www.w3.org/Graphics/SVG/1.1/DTD/svg11.dtd">
<svg xmlns="http://www.w3.org/2000/svg" xmlns:xlink="http://www.w3.org/1999/xlink" version="1.1" width="1000" height="300" viewBox="0 0 1000 300" xml:space="preserve">
<desc>Created with Fabric.js 3.6.6</desc>
<defs>
</defs>
<g transform="matrix(0.82 0 0 0.82 503.22 150.03)"  >
<path style="stroke: rgb(0,0,0); stroke-width: 0; stroke-dasharray: none; stroke-linecap: butt; stroke-dashoffset: 0; stroke-linejoin: miter; stroke-miterlimit: 4; fill: rgb(255,255,255); fill-rule: nonzero; opacity: 1;" vector-effect="non-scaling-stroke"  transform=" translate(-575.49, -118.67)" d="M 549 0.21 C 549 0.21 565 0.21 565 0.21 C 605.65 0.06 644.75 22.05 665.55 57 C 689.31 96.94 685.05 159 655.54 195 C 637.54 216.95 612.97 231.06 585 235.56 C 572.79 237.53 560.33 237.14 548 237 C 538.84 236.89 524.73 233.94 516 231 C 477.6 218.04 451.13 188.51 442.42 149 C 439.35 135.06 439.84 122.16 440 108 C 440.15 95.44 445.05 77.4 450.31 66 C 462.14 40.35 486.64 18.37 513 8.42 C 527.51 2.95 534.21 2.53 549 0.21 Z M 189 173 C 189 173 189 219 189 219 C 189 220.99 189.26 224.67 188.01 226.28 C 185.79 229.12 171 230.76 167 231.28 C 146.93 233.89 116.69 233.89 97 229.58 C 84.7 226.88 73.15 223.78 62 217.69 C 53.18 212.87 43.27 205.04 36.04 198.08 C 8.87 171.95 -0.43 143.98 0 107 C 0.07 101.47 1.3 94.47 2.4 89 C 8.89 56.53 29.72 28.45 60 14.32 C 74.73 7.45 89.99 5.33 106 4.74 C 134.28 3.71 170.42 16.63 185.27 42 C 187.1 45.13 191 51.38 190.44 55 C 189.94 58.25 186.07 62.15 183.88 64.58 C 183.88 64.58 168.28 82 168.28 82 C 165.87 84.78 158.5 94.73 154.96 94.85 C 152.63 94.92 149.77 92.37 148 91.01 C 148 91.01 135 81 135 81 C 137.39 73.92 142.65 71.48 140.44 63 C 138.38 55.05 130.28 50.14 123 47.67 C 107.45 42.42 91.36 43.6 78.29 54.3 C 71.13 60.15 67.52 65.95 63.3 74 C 55.31 89.22 54.81 100.36 55 117 C 55.27 139.74 69.74 163.53 87 177.53 C 101.07 188.95 118.22 193.2 136 193 C 143.89 192.9 152.1 191.41 157.32 184.96 C 161.46 179.84 161.35 176.13 164.39 174.17 C 167.45 172.2 184.4 173 189 173 Z M 1037 4.71 C 1070.03 5.43 1099.95 16.19 1122.82 40.96 C 1139.97 59.55 1150.96 85.58 1151 111 C 1151 111 1151 125 1151 125 C 1150.65 154.74 1136.76 183.86 1115.04 203.82 C 1095.97 221.34 1067.9 231.96 1042 232 C 1042 232 1024 232 1024 232 C 990.7 231.61 954.3 211.82 936.1 184 C 913.85 149.98 911.97 98.69 931.31 63 C 946.35 35.23 974.39 14.89 1005 7.65 C 1017.27 4.75 1024.94 5.3 1037 4.71 Z M 422 8 C 422 8 423 31 423 31 C 419.5 31.94 414.92 33.26 412.58 36.22 C 409.96 39.54 410.01 45.92 410 50 C 410 50 410 70 410 70 C 410 70 410 186 410 186 C 410.02 197.69 410.26 203.39 423 206 C 423 206 423 228 423 228 C 423 228 345 228 345 228 C 345 224.69 344.59 209.41 345.57 207.43 C 346.96 204.62 350.75 205.05 353.86 202.49 C 358.22 198.9 357.99 193.12 358 188 C 358 188 358 126 358 126 C 358 126 283 126 283 126 C 283 126 283 182 283 182 C 283 187.8 281.74 198.43 286.28 202.49 C 288.61 204.59 292.03 205.32 295 206 C 295 206 295 228 295 228 C 295 228 218 228 218 228 C 218 224.54 217.57 209.47 218.6 207.3 C 220.02 204.3 223.78 204.73 226.77 202.3 C 230.42 199.35 229.99 195.21 230 191 C 230 191 230 80 230 80 C 230 80 230 51 230 51 C 230 47.43 230.45 41.1 228.83 38.04 C 226.53 33.71 222.5 32.48 218 32 C 218 32 218 9 218 9 C 218 9 295 9 295 9 C 295 12.32 295.41 27.58 294.43 29.57 C 293.11 32.25 289.16 32.36 286.23 34.76 C 282.55 37.77 283.01 41.72 283 46 C 283 46 283 89 283 89 C 283 89 358 89 358 89 C 358 89 358 49 358 49 C 357.99 43.96 358.14 38.19 353.78 34.7 C 350.7 32.24 347.02 32.7 345.6 29.7 C 344.57 27.53 345 12.46 345 9 C 345 9 395 9 395 9 C 395 9 422 8 422 8 Z M 891 8 C 891 8 892 32 892 32 C 872.72 32.17 865.87 42.28 853 55 C 853 55 832 75.01 832 75.01 C 827.18 79.72 824.04 83.76 818 87 C 818 87 839.16 119 839.16 119 C 839.16 119 876.14 175 876.14 175 C 880.29 181.32 890.68 198.4 896.02 202.2 C 899.3 204.54 902.16 205.21 906 206 C 906 206 906 228 906 228 C 906 228 824 228 824 228 C 824 228 824 205 824 205 C 824 205 834 205 834 205 C 834 205 797.67 150 797.67 150 C 797.67 150 782 125 782 125 C 777.9 127.94 764.05 140.94 762.02 145 C 761.02 147 761.04 148.83 761 151 C 761 151 761 190 761 190 C 761.01 194.41 760.63 199.15 764.28 202.35 C 767.47 205.16 771.89 204.99 773.4 208.27 C 774.4 210.44 774 224.62 774 228 C 774 228 696 228 696 228 C 696 228 696 205 696 205 C 700.23 204.76 704.69 204.01 706.98 199.9 C 708.38 197.37 708.99 186.3 709 183 C 709 183 709 157 709 157 C 709 157 709 55 709 55 C 708.99 50.38 708.62 38.86 705.49 35.56 C 702.36 32.25 698.1 32.87 696.6 29.7 C 695.57 27.53 696 12.46 696 9 C 696 9 774 9 774 9 C 774 9 774 31 774 31 C 769.68 31.99 765.42 33.06 762.85 37.05 C 760.77 40.29 761.01 44.31 761 48 C 761 48 761 89 761 89 C 761 89 789 60 789 60 C 789 60 814 33 814 33 C 814 33 804.6 30.99 804.6 30.99 C 804.6 30.99 803 24 803 24 C 803 24 803 9 803 9 C 803 9 861 9 861 9 C 861 9 891 8 891 8 Z M 598 170 C 605.28 173.42 611.22 182.26 613.1 190 C 614.52 195.82 613.24 203.49 618.14 204.65 C 623.04 205.8 628.13 201.71 628.86 196.99 C 630.05 189.21 627.1 180.54 623.07 174 C 621.83 171.98 617.21 167.12 617.61 165.12 C 618.06 162.84 623.11 160.73 625 159.37 C 634.21 152.71 641.43 135.72 629 134.16 C 617.01 132.66 621.07 148.55 611 150.67 C 604.12 152.11 599.76 143.84 600.23 138 C 600.6 133.51 604.74 130.6 607.2 127 C 610.01 122.89 609.97 120.75 610 116 C 610 116 610 90 610 90 C 610.04 88.09 609.99 86.03 611.02 84.34 C 612.99 81.13 623.4 77.54 622.74 69 C 622.26 62.91 615.23 55.14 611.01 51.09 C 600.38 40.87 589.85 34.39 576 29.58 C 570.47 27.65 562.85 25.57 557 26.44 C 549.63 27.54 539.51 32.85 533 36.58 C 522.54 42.57 514.19 48.46 506.52 57.99 C 503.73 61.44 500.42 65.34 500.47 70 C 500.58 79.74 508.73 78.78 511.4 86 C 513.3 91.13 510.43 104.98 510.09 111 C 509.88 114.79 510.94 122.64 512.69 125.96 C 516.48 133.2 521.79 132.46 518.35 143 C 517.9 144.39 517.25 145.73 516.35 146.89 C 515.66 147.78 514.83 148.63 513.9 149.26 C 504.66 155.42 500.33 138.77 496.78 136.15 C 492.67 133.11 485.43 133.55 483.79 139.18 C 482.89 142.31 485.09 146.32 486.58 149 C 490.63 156.26 500.14 164.69 509 163 C 507.7 168.68 502.9 171.52 499.79 178 C 497.22 183.34 494.48 193.25 496.74 198.98 C 499.01 204.76 505.67 205.94 508.35 204.01 C 511.64 201.64 510.75 195.54 511.18 192 C 511.75 187.31 513.77 182.92 516.4 179.04 C 517.9 176.82 521.52 172.36 524.68 173.44 C 526.59 174.09 526.66 176.36 526.39 178.01 C 525.81 181.56 522.53 185.44 523.1 193 C 523.82 202.68 536.3 213.72 546 212.94 C 554.69 212.24 556.09 200.9 554.54 194 C 553.98 191.49 552.43 188.57 552.6 186 C 552.76 183.67 553.98 181.96 555.09 180 C 556.09 178.24 558.03 173.98 560.17 173.62 C 563.38 173.09 568.8 183.29 569.48 186 C 570.37 189.57 568.76 191.69 568.26 195 C 567.71 198.63 569.05 207.65 571.2 210.6 C 573.65 213.98 578.38 213.47 582 212.67 C 589.85 210.95 598.69 200.94 599.69 193 C 600.91 183.22 594.17 180.84 598 170 Z M 1032 44.19 C 1014.82 46.76 1003.66 47.82 991.18 62 C 985.68 68.25 980.49 79.08 977.83 87 C 968 116.34 972.23 161.77 998.04 182.1 C 1007.92 189.89 1021.6 192.91 1034 193 C 1046.78 193.09 1060.66 190.44 1071 182.47 C 1081.98 174.01 1089.24 159.18 1092.85 146 C 1101.32 115.08 1096.1 67.83 1065 50.9 C 1056.76 46.42 1046.29 44.62 1037 44.19 C 1037 44.19 1032 44.19 1032 44.19 Z M 509 164 C 509 164 508 164 508 164 C 508 164 509 165 509 165 C 509 165 509 164 509 164 Z" stroke-linecap="round" />
</g>
</svg>