<?xml version="1.0" encoding="UTF-8" standalone="no" ?>
<!DOCTYPE svg PUBLIC "-//W3C//DTD SVG 1.1//EN" "http://www.w3.org/Graphics/SVG/1.1/DTD/svg11.dtd">
<svg xmlns="http://www.w3.org/2000/svg" xmlns:xlink="http://www.w3.org/1999/xlink" version="1.1" width="1000" height="300" viewBox="0 0 1000 300" xml:space="preserve">
<desc>Created with Fabric.js 3.6.6</desc>
<defs>
</defs>
<g transform="matrix(0.2 0 0 0.2 500.03 150.08)" id="Selection"  >
<path style="stroke: rgb(255,255,255); stroke-width: 1; stroke-dasharray: none; stroke-linecap: butt; stroke-dashoffset: 0; stroke-linejoin: miter; stroke-miterlimit: 4; fill: rgb(255,255,255); fill-rule: nonzero; opacity: 1;"  transform=" translate(-2500, -750)" d="M 0 1136 C 4.82 1125.22 17.65 1113.09 25.83 1104 C 25.83 1104 73.84 1050 73.84 1050 C 73.84 1050 125.17 992 125.17 992 C 125.17 992 158.91 956 158.91 956 C 158.91 956 236.91 872 236.91 872 C 236.91 872 524.91 561 524.91 561 C 524.91 561 580.09 501 580.09 501 C 580.09 501 730.09 339 730.09 339 C 730.09 339 787.83 277 787.83 277 C 787.83 277 825.83 236 825.83 236 C 825.83 236 853.04 206 853.04 206 C 853.04 206 897 162.04 897 162.04 C 897 162.04 909.99 150 909.99 150 C 909.99 150 929.09 129 929.09 129 C 929.09 129 978.83 76 978.83 76 C 978.83 76 1027.72 23 1027.72 23 C 1033.63 16.28 1045.47 1.81 1054 0 C 1054 0 1058.04 33 1058.04 33 C 1058.04 33 1058.04 49 1058.04 49 C 1058.04 49 1059 61 1059 61 C 1059 61 1059 144 1059 144 C 1059 144 1058 159 1058 159 C 1058 159 1058 243 1058 243 C 1058 243 1059 257 1059 257 C 1059 257 1059 261 1059 261 C 1059 261 1060 279 1060 279 C 1060 279 1060.91 289 1060.91 289 C 1060.91 289 1062 311 1062 311 C 1062 311 1063 328 1063 328 C 1063 328 1063 476 1063 476 C 1063 476 1112.09 423 1112.09 423 C 1112.09 423 1211.09 316 1211.09 316 C 1211.09 316 1311.09 208 1311.09 208 C 1311.09 208 1377.72 136 1377.72 136 C 1406.64 103.14 1436.04 70.96 1467 40 C 1475.83 31.17 1485.07 22.24 1495 14.65 C 1500.54 10.43 1506.04 6.31 1513 5 C 1513 5 1513 778 1513 778 C 1513 778 1539.09 750 1539.09 750 C 1539.09 750 1590.17 695 1590.17 695 C 1590.17 695 1647.91 633 1647.91 633 C 1647.91 633 1716.09 559 1716.09 559 C 1716.09 559 1919.09 340 1919.09 340 C 1919.09 340 1995.09 258 1995.09 258 C 1995.09 258 2038.83 211 2038.83 211 C 2038.83 211 2143.09 98 2143.09 98 C 2143.09 98 2175.83 63 2175.83 63 C 2189.02 48.42 2203.93 30.97 2219 18.62 C 2225.59 13.21 2234.53 6.59 2243 5 C 2243 5 2243 886 2243 886 C 2243 886 2271.09 856 2271.09 856 C 2271.09 856 2320.17 803 2320.17 803 C 2320.17 803 2377.91 741 2377.91 741 C 2377.91 741 2446.09 667 2446.09 667 C 2446.09 667 2819.91 264 2819.91 264 C 2819.91 264 2863.09 217 2863.09 217 C 2863.09 217 2906.83 170 2906.83 170 C 2906.83 170 2960.04 112 2960.04 112 C 2960.04 112 2995.99 76 2995.99 76 C 2995.99 76 3005.04 66 3005.04 66 C 3005.04 66 3027.96 43 3027.96 43 C 3027.96 43 3045 25 3045 25 C 3050.67 19.33 3061.37 7.14 3068 4 C 3068 4 3068 221 3068 221 C 3068 221 3068 330 3068 330 C 3068 330 3069 345 3069 345 C 3069 345 3069 362 3069 362 C 3069 362 3070 377 3070 377 C 3070 377 3070 396 3070 396 C 3070 396 3071 412 3071 412 C 3071 412 3071 443 3071 443 C 3071 443 3072 464 3072 464 C 3072 464 3074 491 3074 491 C 3077.25 479.87 3094.93 459.23 3102.87 450 C 3102.87 450 3152.17 394 3152.17 394 C 3152.17 394 3168.83 377 3168.83 377 C 3168.83 377 3236.91 305 3236.91 305 C 3236.91 305 3367.09 164 3367.09 164 C 3367.09 164 3403.17 125 3403.17 125 C 3403.17 125 3412.72 115 3412.72 115 C 3412.72 115 3478.17 44 3478.17 44 C 3478.17 44 3487.72 34 3487.72 34 C 3495.05 25.69 3502.81 18.36 3511 10.93 C 3516.22 6.19 3520.89 1.45 3528 0 C 3528 0 3528 746 3528 746 C 3528 746 3576.09 694 3576.09 694 C 3576.09 694 3676.09 586 3676.09 586 C 3676.09 586 4011.91 224 4011.91 224 C 4011.91 224 4081.09 149 4081.09 149 C 4081.09 149 4134.91 92 4134.91 92 C 4149.39 76.46 4164.05 60.77 4180 46.72 C 4183.92 43.26 4191.05 35.25 4195 33.31 C 4200.12 30.8 4225.65 28.72 4233 27.85 C 4233 27.85 4259 25.09 4259 25.09 C 4259 25.09 4282 23.83 4282 23.83 C 4282 23.83 4308 21.91 4308 21.91 C 4308 21.91 4320 21 4320 21 C 4320 21 5000 21 5000 21 C 4999.88 30.91 4995.44 33.86 4989.15 41 C 4989.15 41 4971.87 61 4971.87 61 C 4971.87 61 4891.27 155 4891.27 155 C 4891.27 155 4812.41 247 4812.41 247 C 4801.68 259.89 4780.33 286.97 4767 295.07 C 4755.62 302 4739.23 304.98 4726 305 C 4726 305 4373 305 4373 305 C 4348.72 305.04 4337.94 318.06 4322 334 C 4322 334 4277.25 384 4277.25 384 C 4277.25 384 4251 415 4251 415 C 4251 415 4283 416 4283 416 C 4283 416 4300 417 4300 417 C 4300 417 4320 417 4320 417 C 4320 417 4335 418 4335 418 C 4335 418 4352 418 4352 418 C 4352 418 4369 419 4369 419 C 4369 419 4397 419 4397 419 C 4397 419 4414 420 4414 420 C 4414 420 4428 420 4428 420 C 4428 420 4443 421 4443 421 C 4438.08 432.01 4427.3 441.89 4419.28 451 C 4419.28 451 4376.16 500 4376.16 500 C 4376.16 500 4290.83 597 4290.83 597 C 4290.83 597 4238.28 655 4238.28 655 C 4238.28 655 4207.17 687 4207.17 687 C 4201.23 693.56 4188.74 708.07 4181 711.36 C 4175.99 713.5 4172.05 712.69 4167 713.17 C 4167 713.17 4145 715 4145 715 C 4145 715 4021 715 4021 715 C 4001.1 715 3993.21 714.34 3973 717.59 C 3968.35 718.34 3958.9 719.58 3955 721.41 C 3949.18 724.14 3943.56 730.44 3939 735 C 3939 735 3921 752 3921 752 C 3901.25 771.72 3883.41 792.81 3865.27 814 C 3865.27 814 3841 842 3841 842 C 3841 842 4533 842 4533 842 C 4523.74 873.68 4494.42 897.03 4473.28 921 C 4473.28 921 4419.17 981 4419.17 981 C 4419.17 981 4364.83 1042 4364.83 1042 C 4364.83 1042 4333.42 1077 4333.42 1077 C 4322.85 1089.2 4300.2 1116.34 4288 1124.48 C 4276.58 1132.09 4260.63 1135.98 4247 1136 C 4247 1136 3185 1136 3185 1136 C 3188.29 1126.75 3194.52 1119.44 3200.75 1112 C 3215.78 1094.06 3238.83 1074.68 3245.8 1052 C 3249.17 1041 3249.29 1029.38 3250.09 1018 C 3250.09 1018 3251 1006 3251 1006 C 3251 1006 3251 950 3251 950 C 3251 950 3251 762 3251 762 C 3251 762 3221.91 793 3221.91 793 C 3221.91 793 3146.91 874 3146.91 874 C 3146.91 874 3008.91 1023 3008.91 1023 C 3008.91 1023 2985.09 1047 2985.09 1047 C 2985.09 1047 2903 1133 2903 1133 C 2893.16 1142.96 2876.64 1162.38 2866 1170 C 2866 1170 2866 686 2866 686 C 2866 686 2825.83 730 2825.83 730 C 2825.83 730 2752.83 810 2752.83 810 C 2752.83 810 2549.17 1033 2549.17 1033 C 2549.17 1033 2508.91 1078 2508.91 1078 C 2508.91 1078 2477.09 1111 2477.09 1111 C 2467.46 1121.33 2451.04 1138.57 2438 1143.91 C 2432.05 1146.34 2425.37 1146.99 2419 1147 C 2419 1147 1971 1147 1971 1147 C 1971 1147 1971 767 1971 767 C 1971 767 1945.91 794 1945.91 794 C 1945.91 794 1910.09 832 1910.09 832 C 1910.09 832 1880.96 864 1880.96 864 C 1880.96 864 1820.04 924 1820.04 924 C 1820.04 924 1787.91 959 1787.91 959 C 1787.91 959 1662.91 1094 1662.91 1094 C 1662.91 1094 1537.91 1229 1537.91 1229 C 1537.91 1229 1456.17 1317 1456.17 1317 C 1456.17 1317 1330.07 1454 1330.07 1454 C 1313.3 1472.49 1294.85 1499.96 1267 1500 C 1267 1500 851 1500 851 1500 C 856.63 1488.45 872.03 1471.15 880.73 1461 C 880.73 1461 902.91 1437 902.91 1437 C 902.91 1437 953.99 1384 953.99 1384 C 953.99 1384 962.09 1375.17 962.09 1375.17 C 962.09 1375.17 986.96 1351 986.96 1351 C 986.96 1351 1011.09 1325 1011.09 1325 C 1011.09 1325 1022.91 1313 1022.91 1313 C 1022.91 1313 1078.91 1253 1078.91 1253 C 1078.91 1253 1135.04 1192 1135.04 1192 C 1135.04 1192 1191.04 1132 1191.04 1132 C 1203.07 1119.42 1225.08 1095.84 1231.53 1080 C 1234.26 1073.27 1234.97 1059.48 1235 1052 C 1235 1052 1236 1036 1236 1036 C 1236 1036 1236 767 1236 767 C 1236 767 1211.91 793 1211.91 793 C 1211.91 793 1136.91 874 1136.91 874 C 1136.91 874 1023.91 996 1023.91 996 C 1023.91 996 965.17 1059 965.17 1059 C 965.17 1059 919.17 1109 919.17 1109 C 907.48 1121.93 895.92 1135.49 883 1147.17 C 873.4 1155.85 858.65 1171 846 1174 C 846 1174 846 1019 846 1019 C 846 1019 845 1005 845 1005 C 845 1005 845 1001 845 1001 C 845 1001 844 986 844 986 C 844 986 842 956 842 956 C 842 956 842 947 842 947 C 842 947 841 935 841 935 C 841 935 841 708 841 708 C 841 708 813.91 737 813.91 737 C 813.91 737 747.91 808 747.91 808 C 747.91 808 638.09 926 638.09 926 C 638.09 926 602.17 965 602.17 965 C 602.17 965 585.91 982.96 585.91 982.96 C 585.91 982.96 575 993 575 993 C 575 993 531 1037 531 1037 C 531 1037 461 1107 461 1107 C 461 1107 438 1129.42 438 1129.42 C 438 1129.42 428 1137.49 428 1137.49 C 428 1137.49 410 1140.08 410 1140.08 C 410 1140.08 385 1142 385 1142 C 385 1142 220 1142 220 1142 C 220 1142 195 1140.09 195 1140.09 C 195 1140.09 172 1139 172 1139 C 172 1139 159 1138 159 1138 C 159 1138 126 1136 126 1136 C 126 1136 0 1136 0 1136 Z M 4185 1414 C 4185 1414 4161 1414 4161 1414 C 4158.61 1414 4155.31 1414.21 4153.21 1412.98 C 4150.62 1411.47 4148.19 1406.66 4146.78 1404 C 4146.78 1404 4137.7 1386 4137.7 1386 C 4122.47 1352.23 4118.35 1319.06 4127.63 1283 C 4131.41 1268.33 4137.43 1254.25 4144.7 1241 C 4151.92 1227.84 4151.16 1227.02 4161 1227 C 4161 1227 4185 1227 4185 1227 C 4185 1227 4179.31 1238 4179.31 1238 C 4167.82 1262.83 4160.79 1284.61 4158.91 1312 C 4158.65 1315.88 4157.85 1317.71 4158.09 1322 C 4159.75 1351.35 4166.99 1376.37 4179.31 1403 C 4179.31 1403 4185 1414 4185 1414 Z M 4801 1227 C 4801 1227 4825 1227 4825 1227 C 4826.94 1227 4830.14 1226.88 4831.9 1227.6 C 4835.74 1229.17 4839.85 1238.23 4841.75 1242 C 4848.95 1256.29 4854.33 1267.3 4858.37 1283 C 4867.22 1317.38 4863.98 1354 4848.24 1386 C 4848.24 1386 4838.58 1405 4838.58 1405 C 4837.22 1407.4 4835.14 1411.6 4832.79 1412.98 C 4830.7 1414.21 4827.38 1414 4825 1414 C 4825 1414 4801 1414 4801 1414 C 4809.13 1395.68 4814.63 1387.83 4820.57 1367 C 4829.74 1334.88 4829.88 1304 4819.98 1272 C 4814.11 1253.05 4808.65 1244.15 4801 1227 Z M 3428 1231.22 C 3428 1231.22 3436 1231.22 3436 1231.22 C 3454.53 1230.97 3468.42 1231.6 3482.96 1245.17 C 3506.37 1267.03 3508.2 1313.82 3500.87 1343 C 3497.84 1355.09 3492.33 1367.27 3482.99 1375.83 C 3467.64 1389.87 3453.41 1390.22 3434 1390 C 3406.24 1389.67 3389.13 1369.97 3381.72 1345 C 3377.2 1329.76 3377.82 1314.7 3378 1299 C 3378.09 1291.26 3380.24 1280.37 3382.67 1273 C 3390.34 1249.71 3403.49 1236.03 3428 1231.22 Z M 3760 1237 C 3760 1237 3782 1232.42 3782 1232.42 C 3800.96 1229.48 3830.73 1229.41 3848 1238.27 C 3862.65 1245.79 3866.18 1257.78 3866 1273 C 3865.92 1279.89 3864.27 1286.33 3860.21 1292 C 3854.71 1299.68 3849.08 1301.43 3841 1305 C 3850.02 1308.15 3857.49 1312.01 3863.21 1320 C 3873.02 1333.68 3871.95 1356.61 3862.07 1370 C 3858.64 1374.66 3854.93 1377.45 3850 1380.37 C 3831.7 1391.22 3797.63 1392.04 3777 1388.57 C 3777 1388.57 3754 1383 3754 1383 C 3754 1383 3754 1352 3754 1352 C 3754 1352 3772 1358.28 3772 1358.28 C 3784.58 1362.03 3788.21 1362.06 3801 1362 C 3808.11 1361.97 3815.16 1360.84 3821 1356.45 C 3830.61 1349.21 3832.21 1337.53 3822.96 1329.21 C 3815.6 1322.59 3808.08 1322.54 3799 1321.91 C 3799 1321.91 3780 1321 3780 1321 C 3780 1321 3780 1296 3780 1296 C 3790.96 1296 3810.36 1296.58 3818.98 1289.61 C 3820.92 1288.05 3822.66 1286.2 3823.86 1284 C 3829.5 1273.69 3821.75 1264.03 3812 1260.55 C 3808 1259.12 3805.15 1259.02 3801 1259 C 3789.6 1258.95 3787.2 1259.08 3776 1262.15 C 3776 1262.15 3760 1267 3760 1267 C 3760 1267 3760 1237 3760 1237 Z M 3980 1327 C 3974.75 1329.51 3970.79 1331.95 3965 1333.51 C 3957.87 1335.43 3952.25 1335.01 3945 1335 C 3934.32 1334.98 3923.58 1332.08 3915 1325.47 C 3886.95 1303.86 3891.11 1255.31 3922 1238.31 C 3936.69 1230.23 3947 1230.82 3963 1231 C 3968.58 1231.07 3972.71 1231.95 3978 1233.67 C 4007.18 1243.19 4018.96 1273.46 4019 1302 C 4019 1302 4019 1316 4019 1316 C 4018.97 1321.35 4018.21 1326.75 4017.2 1332 C 4015.77 1339.38 4012.27 1350.55 4008.54 1357 C 4005.23 1362.72 4001.7 1367.34 3997 1371.99 C 3986.15 1382.7 3970.37 1389.82 3955 1390 C 3955 1390 3939 1390 3939 1390 C 3925.68 1389.98 3919.13 1386.77 3907 1384 C 3907 1384 3907 1355 3907 1355 C 3907 1355 3927 1361.52 3927 1361.52 C 3941.16 1365.15 3958.3 1363.95 3968.91 1352.96 C 3972.05 1349.7 3974.31 1346.09 3976.21 1342 C 3978.38 1337.31 3979.57 1332.13 3980 1327 Z M 4218 1239 C 4218 1239 4237 1234.21 4237 1234.21 C 4265.26 1228.2 4314.14 1225.94 4325.64 1260 C 4328.24 1267.67 4328.01 1270.16 4328 1278 C 4327.97 1299.47 4314.21 1312.94 4299 1326.28 C 4299 1326.28 4263 1358 4263 1358 C 4263 1358 4329 1358 4329 1358 C 4329 1358 4329 1387 4329 1387 C 4329 1387 4217 1387 4217 1387 C 4217 1387 4217 1365 4217 1365 C 4217 1363.01 4216.88 1359.9 4217.6 1358.09 C 4218.98 1354.59 4232.39 1343.7 4236 1340.58 C 4236 1340.58 4267 1313.15 4267 1313.15 C 4276.37 1304.91 4286.3 1296.37 4287.47 1283 C 4288.7 1269.03 4276.05 1259.16 4263 1259 C 4240.06 1258.73 4231.24 1269.82 4218 1274 C 4218 1274 4218 1239 4218 1239 Z M 4407 1231.22 C 4407 1231.22 4415 1231.22 4415 1231.22 C 4433.53 1230.97 4447.42 1231.6 4461.96 1245.17 C 4485.37 1267.03 4487.2 1313.82 4479.87 1343 C 4476.84 1355.09 4471.33 1367.27 4461.99 1375.83 C 4446.64 1389.87 4432.41 1390.22 4413 1390 C 4385.24 1389.67 4368.13 1369.97 4360.72 1345 C 4356.2 1329.76 4356.82 1314.7 4357 1299 C 4357.09 1291.26 4359.24 1280.37 4361.67 1273 C 4369.34 1249.71 4382.49 1236.03 4407 1231.22 Z M 4699 1231.22 C 4699 1231.22 4707 1231.22 4707 1231.22 C 4725.53 1230.97 4739.42 1231.6 4753.96 1245.17 C 4777.37 1267.03 4779.2 1313.82 4771.87 1343 C 4768.84 1355.09 4763.33 1367.27 4753.99 1375.83 C 4738.64 1389.87 4724.41 1390.22 4705 1390 C 4677.24 1389.67 4660.13 1369.97 4652.72 1345 C 4648.2 1329.76 4648.82 1314.7 4649 1299 C 4649.09 1291.26 4651.24 1280.37 4653.67 1273 C 4661.34 1249.71 4674.49 1236.03 4699 1231.22 Z M 3617 1240 C 3617 1240 3656 1234 3656 1234 C 3656 1234 3691 1234 3691 1234 C 3691 1234 3691 1359 3691 1359 C 3691 1359 3726 1359 3726 1359 C 3726 1359 3726 1387 3726 1387 C 3726 1387 3618 1387 3618 1387 C 3618 1387 3618 1359 3618 1359 C 3618 1359 3653 1359 3653 1359 C 3653 1359 3653 1263 3653 1263 C 3653 1263 3617 1269 3617 1269 C 3617 1269 3617 1240 3617 1240 Z M 4516 1240 C 4516 1240 4555 1234 4555 1234 C 4555 1234 4590 1234 4590 1234 C 4590 1234 4590 1359 4590 1359 C 4590 1359 4625 1359 4625 1359 C 4625 1359 4625 1387 4625 1387 C 4625 1387 4517 1387 4517 1387 C 4517 1387 4517 1359 4517 1359 C 4517 1359 4552 1359 4552 1359 C 4552 1359 4552 1263 4552 1263 C 4552 1263 4516 1269 4516 1269 C 4516 1269 4516 1240 4516 1240 Z M 3950 1257.34 C 3946.36 1258.32 3944.01 1259.29 3941.36 1262.19 C 3933.37 1271.07 3933.14 1294.02 3941.36 1302.81 C 3946.23 1308.07 3955.25 1309.16 3962 1307.61 C 3978.58 1303.81 3979.49 1273.84 3970.61 1263.04 C 3965.07 1256.31 3957.96 1256.42 3950 1257.34 Z M 3436 1259.57 C 3424.51 1262.44 3422.1 1271.62 3420 1282 C 3416.91 1297.29 3417.2 1327.84 3420.9 1343 C 3424.2 1356.53 3431.18 1364.34 3446 1361.67 C 3458.15 1359.48 3461.39 1345.37 3462.72 1335 C 3462.72 1335 3464 1319 3464 1319 C 3464.02 1304.83 3464.63 1289.77 3460.84 1276 C 3458.93 1269.05 3455.36 1262.11 3448 1259.57 C 3444.33 1258.65 3439.77 1258.9 3436 1259.57 Z M 4415 1259.57 C 4403.51 1262.44 4401.1 1271.62 4399 1282 C 4395.91 1297.29 4396.2 1327.84 4399.9 1343 C 4403.2 1356.53 4410.18 1364.34 4425 1361.67 C 4437.15 1359.48 4440.39 1345.37 4441.72 1335 C 4441.72 1335 4443 1319 4443 1319 C 4443.02 1304.83 4443.63 1289.77 4439.84 1276 C 4437.93 1269.05 4434.36 1262.11 4427 1259.57 C 4423.33 1258.65 4418.77 1258.9 4415 1259.57 Z M 4707 1259.57 C 4695.51 1262.44 4693.1 1271.62 4691 1282 C 4687.91 1297.29 4688.2 1327.84 4691.9 1343 C 4695.2 1356.53 4702.18 1364.34 4717 1361.67 C 4729.15 1359.48 4732.39 1345.37 4733.72 1335 C 4733.72 1335 4735 1319 4735 1319 C 4735.02 1304.83 4735.63 1289.77 4731.84 1276 C 4729.93 1269.05 4726.36 1262.11 4719 1259.57 C 4715.33 1258.65 4710.77 1258.9 4707 1259.57 Z M 3535 1347 C 3535 1347 3573 1347 3573 1347 C 3573 1347 3573 1387 3573 1387 C 3573 1387 3535 1387 3535 1387 C 3535 1387 3535 1347 3535 1347 Z" stroke-linecap="round" />
</g>
</svg>